Coordinates
version=1
nRows=19
nColumns=24
inDegrees=yes

Units are S.I. units (second, meters, Newtons, ...)
Angles are in degrees.

endheader
time	pelvis_tilt	pelvis_list	pelvis_rotation	pelvis_tx	pelvis_ty	pelvis_tz	hip_flexion_r	hip_adduction_r	hip_rotation_r	knee_angle_r	ankle_angle_r	subtalar_angle_r	mtp_angle_r	hip_flexion_l	hip_adduction_l	hip_rotation_l	knee_angle_l	ankle_angle_l	subtalar_angle_l	mtp_angle_l	lumbar_extension	lumbar_bending	lumbar_rotation
      1.40416667	     -1.79336988	     -1.16702188	    -12.33622943	      0.99638654	      0.98542551	      0.27594502	    -19.02840877	      1.32990761	     10.41802046	     -6.52867254	      9.53130365	     -7.61543415	     13.01139425	     24.53052868	     -5.64568751	    -11.93047739	      4.96444221	      7.09457577	     -8.01430001	      6.43264358	     -1.58149739	      1.07435355	     11.70553755
      1.40833333	     -1.78053577	     -1.10676544	    -12.42084286	      1.00245933	      0.98491940	      0.27566969	    -19.18846626	      1.16528572	     10.41323429	     -6.88573030	      9.33308005	     -7.60634133	     13.06938568	     24.53650874	     -5.59402535	    -11.96655802	      4.61221017	      7.22668799	     -8.17169688	      6.42010054	     -1.57568996	      0.96176167	     11.73496967
      1.41250000	     -1.78624920	     -1.03769552	    -12.50645234	      1.00859297	      0.98439994	      0.27536435	    -19.29231782	      0.98869581	     10.27228225	     -7.29937971	      9.11606599	     -7.43075458	     19.27899050	     24.60097696	     -5.54358703	    -12.06937066	      4.11642725	      7.49809984	     -8.10939193	      5.28755369	     -1.50501311	      0.84769894	     11.86464821
      1.41666667	     -1.71625890	     -0.93358213	    -12.57359890	      1.01482260	      0.98400799	      0.27509750	    -19.51438414	      0.77356851	     10.24807153	     -7.64270652	      8.87157802	     -7.48804550	     19.30602569	     24.52744681	     -5.42455156	    -12.02273769	      3.70763574	      7.57970613	     -8.31179709	      5.28982082	     -1.51799386	      0.64457565	     11.98008986
      1.42083333	     -1.67832666	     -0.83996465	    -12.65554130	      1.02103175	      0.98360829	      0.27480565	    -19.66463532	      0.57385772	     10.22791380	     -8.05817843	      8.63051031	     -7.50400935	     19.31974235	     24.50872241	     -5.32881708	    -12.01361173	      3.21413696	      7.60909282	     -8.47971489	      5.29183914	     -1.51487397	      0.49956226	     12.02594346
      1.42500000	     -1.63278186	     -0.72309219	    -12.72382476	      1.02733931	      0.98323050	      0.27449779	    -19.81803547	      0.35303181	     10.16713014	     -8.47911604	      8.35899240	     -7.50376703	     19.34260109	     24.47870060	     -5.19863197	    -11.98146959	      2.69636101	      7.64603522	     -8.63923670	      5.29668919	     -1.48981479	      0.31304142	     12.10067826
      1.42916667	     -1.57757622	     -0.58886941	    -12.78711064	      1.03375393	      0.98289183	      0.27418560	    -19.97212668	      0.11253339	     10.05796389	     -8.91383233	      8.06419046	     -7.46754660	     19.39677640	     24.43261088	     -5.04445388	    -11.92749820	      2.15733976	      7.64897050	     -8.78977823	      5.30875488	     -1.43164365	      0.09343334	     12.23284395
      1.43333333	     -1.50898062	     -0.43943161	    -12.86596839	      1.04012868	      0.98259583	      0.27385716	    -20.08926829	     -0.15141575	      9.91468478	     -9.43648099	      7.82660887	     -7.28177722	     19.67894290	     24.36180384	     -4.87086809	    -11.86454505	      1.62684020	      7.52718990	     -8.98942818	      5.37580000	     -1.44032143	     -0.13137345	     12.52084929
      1.43750000	     -1.46754423	     -0.27952638	    -12.92617058	      1.04660640	      0.98228944	      0.27351433	    -20.19231394	     -0.40810666	      9.81921321	     -9.92989174	      7.47877923	     -7.32140989	     19.74572405	     24.33987128	     -4.68681297	    -11.81434518	      1.03589674	      7.44488570	     -9.11649186	      5.39396980	     -1.36836796	     -0.36916223	     12.54659334
      1.44166667	     -1.43332428	     -0.09219783	    -12.97932263	      1.05311958	      0.98199616	      0.27316171	    -20.26323148	     -0.68874377	      9.68871473	    -10.45655890	      7.10808547	     -7.27451337	     19.89796237	     24.31437987	     -4.46871856	    -11.72677329	      0.46926258	      7.25765053	     -9.25725720	      5.43497751	     -1.29850306	     -0.64849066	     12.64347915
      1.44583333	     -1.37414965	      0.07369512	    -13.02808366	      1.05961712	      0.98176569	      0.27277171	    -20.33543437	     -0.94808545	      9.54644670	    -11.03793595	      6.74059343	     -7.28922654	     19.98789288	     24.28504519	     -4.26657943	    -11.67823459	     -0.15382654	      7.04519273	     -9.38761934	      5.46011343	     -1.24547792	     -0.87433208	     12.70371166
      1.45000000	     -1.36236839	      0.28255073	    -13.08269148	      1.06617579	      0.98149816	      0.27235696	    -20.31252894	     -1.24901124	      9.33775609	    -11.67448931	      6.31517527	     -7.22315446	     26.41643049	     24.27179901	     -4.01837761	    -11.51742860	     -0.69982921	      6.66459331	     -9.71876750	      7.41255373	     -1.14429737	     -1.15457234	     12.87447653
      1.45416667	     -1.30690963	      0.50077345	    -13.11281946	      1.07278933	      0.98132178	      0.27193916	    -20.34598749	     -1.55311968	      9.16118113	    -12.30004548	      5.86786069	     -7.20628583	     26.43080132	     24.23834181	     -3.75052085	    -11.45893006	     -1.30218330	      6.36659579	     -9.79184295	      7.41950379	     -1.07626229	     -1.46373916	     12.92262766
      1.45833333	     -1.25893940	      0.73144007	    -13.12950252	      1.07943905	      0.98115645	      0.27148482	    -20.34389173	     -1.86428134	      8.94483887	    -12.97442314	      5.40776833	     -7.14467602	     26.46938571	     24.21844831	     -3.46328118	    -11.37414929	     -1.91218640	      6.01169932	     -9.90071612	      7.43593484	     -0.99156436	     -1.78131994	     12.98672022
      1.46250000	     -1.23256705	      0.96921929	    -13.15456600	      1.08605703	      0.98099497	      0.27098206	    -20.25349922	     -2.18522988	      8.66657604	    -13.76740281	      5.02050864	     -6.93034116	     26.63282202	     24.21227027	     -3.16741769	    -11.24156766	     -2.49728990	      5.56734742	    -10.15241976	      7.49755593	     -0.88734383	     -2.08138533	     13.09272993
      1.46666667	     -1.16852142	      1.20031365	    -13.14910337	      1.09270921	      0.98092539	      0.27048022	    -20.22602296	     -2.48694141	      8.45087064	    -14.51336536	      4.46551420	     -6.97387242	     26.67723664	     24.19728974	     -2.87114424	    -11.18788318	     -3.14965986	      5.20011189	    -10.20390271	      7.51311569	     -0.81035950	     -2.38830237	     13.11803956
      1.47083333	     -1.15516434	      1.48301002	    -13.14504938	      1.09945667	      0.98082257	      0.26997034	    -20.10920481	     -2.83615367	      8.19901211	    -15.30645907	      3.91085735	     -6.85901507	     26.78431012	     24.21406955	     -2.52672243	    -11.09660273	     -3.75220174	      4.75995440	    -10.28229277	      7.55044727	     -0.66962000	     -2.77188862	     13.16078172
      1.47500000	     -1.16556079	      1.74703625	    -13.14742847	      1.10610869	      0.98070977	      0.26938501	    -19.87931873	     -3.17103245	      7.87128887	    -16.27161282	      3.46496654	     -6.59306472	     27.07345450	     24.27187112	     -2.20557144	    -10.98285816	     -4.38290658	      4.31439126	    -10.47126712	      7.64690981	     -0.51059972	     -3.07585934	     13.21661423
      1.47916667	     -1.09744946	      2.02617000	    -13.08114894	      1.11281862	      0.98072148	      0.26876382	    -19.77419505	     -3.50816080	      7.55196342	    -17.14935064	      2.85453903	     -6.62903013	     31.87815574	     24.25244323	     -1.82567736	    -10.82344816	     -5.00642167	      3.82512679	    -10.68167401	      9.24539405	     -0.43463561	     -3.46116535	     13.22217761
